<?xml version="1.0" encoding="UTF-8"?>
<svg id="Ebene_1" xmlns="http://www.w3.org/2000/svg" version="1.1" viewBox="0 0 1067.6 1073.9">
  <!-- Generator: Adobe Illustrator 30.2.0, SVG Export Plug-In . SVG Version: 2.1.1 Build 105)  -->
  <path d="M239.4,278.5c12.9-11.5,32.3-11.5,45.2,0,30.5,26.4,72.5,48.1,113.3,48.1s82.9-21.7,113.3-48.1c12.9-11.5,32.3-11.5,45.2,0,30.6,26.4,72.5,48.1,113.3,48.1s82.9-21.7,113.3-48.1c12.9-11.5,32.3-11.5,45.2,0,23.9,21.4,55.7,38.1,86.8,45.2,18.3,4.1,29.9,22.3,25.8,40.8-4.1,18.5-22.2,30-40.7,25.8-40.7-9.1-74.1-29.1-94.5-43.2-39.8,27.7-87,48-136,48s-96.2-20.3-136-48c-39.8,27.7-87,48-136,48s-96.2-20.3-136-48c-20.4,14.2-53.8,34.1-94.5,43.2-18.3,4.1-36.6-7.4-40.7-25.8-4.1-18.5,7.4-36.6,25.8-40.8,31.7-7.2,62.6-24,87-45.2ZM239.4,687.5c12.9-11.5,32.3-11.5,45.2,0,30.5,26.4,72.5,48.1,113.3,48.1s82.9-21.7,113.3-48.1c12.9-11.5,32.3-11.5,45.2,0,30.6,26.4,72.5,48.1,113.3,48.1s82.9-21.7,113.3-48.1c12.9-11.5,32.3-11.5,45.2,0,23.9,21.4,55.7,38.1,86.8,45.2,18.3,4.1,29.9,22.3,25.8,40.8-4.1,18.5-22.2,30-40.7,25.8-40.7-9.1-74.1-29.1-94.5-43.2-39.8,27.7-87,48-136,48s-96.2-20.3-136-48c-39.8,27.7-87,48-136,48s-96.2-20.3-136-48c-20.4,14.2-53.8,34.1-94.5,43.2-18.3,4.1-36.6-7.4-40.7-25.8-4.1-18.5,7.4-36.6,25.8-40.8,31.5-7.1,62.3-23.9,86.7-45h.3ZM284.6,483c30.5,26.4,72.5,48.1,113.3,48.1s82.9-21.7,113.3-48.1c12.9-11.5,32.3-11.5,45.2,0,30.6,26.4,72.5,48.1,113.3,48.1s82.9-21.7,113.3-48.1c12.9-11.5,32.3-11.5,45.2,0,23.9,21.4,55.7,38.1,86.8,45.2,18.3,4.1,29.9,22.3,25.8,40.8-4.1,18.5-22.2,30-40.7,25.8-40.7-9.1-74.1-29.1-94.5-43.2-39.8,27.7-87,48-136,48s-96.2-20.3-136-48c-39.8,27.7-87,48-136,48s-96.2-20.3-136-48c-20.4,14.2-53.8,34.1-94.5,43.2-18.3,4.1-36.6-7.4-40.7-25.8-4.1-18.5,7.4-36.6,25.8-40.8,31.5-7.1,62.3-23.9,86.7-45,12.9-11.5,32.3-11.5,45.2,0h.3Z" fill="#fff"/>
</svg>