<?xml version="1.0" encoding="UTF-8"?>
<svg id="Ebene_1" xmlns="http://www.w3.org/2000/svg" version="1.1" viewBox="0 0 1067.6 1073.9">
  <!-- Generator: Adobe Illustrator 30.2.0, SVG Export Plug-In . SVG Version: 2.1.1 Build 105)  -->
  <path d="M64.2,422c5.5-18.2,12.4-36.1,26.8-49,130.9-93.8,255.2-206.2,387-297.8,32.2-22.4,60.9-29.9,97.6-10.1l170,128.6v-83c-33.2-.8-38.3-48.3-6-56.1l181.9,1.3c28.6,13.7,20.3,52.4-10.3,55.9v210.8c29.4,26.2,74.9,45.8,88,85.9,22.1,68.1-40.8,131.3-106.3,108v482.2c0,7.6-13.5,19.1-20.2,21.7H194.9c-6.8-2.7-20.2-14-20.2-21.7v-482.2c-49.3,18.4-100-14.9-110.5-66.1v-28.3s0,0,0,0ZM529.7,111c-5.2.8-10.6,4.3-14.8,7.5L128.6,415.3c-20.2,21.9-3.5,54.1,26.3,47.7l367.8-279.7c8.1-3.3,14-3.3,22.1,0l360.4,276.1c31.1,17.7,57.6-20.4,32.8-45L552.7,118.5c-7-5.4-14.2-8.9-23.1-7.5h0ZM856,110.6h-55.3v128.3l55.3,39.6V110.6ZM837.6,623.9v-144.4l-304.4-232.7-303.2,232.7v144.4h202.5v-208.5c0-.7,3.7-8.9,4.7-10.3,5.9-8.8,14-10.7,23.8-11.5,48.6-3.7,101.8,2.8,150.9.3,8.4-.3,23.1,14,23.1,21.6v208.5s202.6,0,202.6,0ZM579.8,450.4h-92.1v173.7h92.1s0-173.7,0-173.7ZM616.6,680.6H230v283.1h165.7v-91.5c0-7.4,14-21.7,21.2-21.7h89.3v-91.5c0-7.4,14-21.7,21.2-21.7h89.3v-56.6h0ZM837.6,680.6h-165.7v91.5c0,6.6-14.8,21.7-21.2,21.7h-89.3v91.5c0,6.6-14.8,21.7-21.2,21.7h-89.3v56.6h386.7v-283.1h0Z" fill="#fff"/>
</svg>