<?xml version="1.0" encoding="UTF-8"?>
<svg id="Ebene_1" xmlns="http://www.w3.org/2000/svg" version="1.1" viewBox="0 0 1067.6 1073.9">
  <!-- Generator: Adobe Illustrator 30.2.0, SVG Export Plug-In . SVG Version: 2.1.1 Build 105)  -->
  <path d="M1022,564c0-46.3-8-92.8-23.7-136.4-15.8-43.8-38.7-84.2-67.5-120.8-28.9-36.8-63.7-68.6-102.1-95.2-39.6-27.4-83.5-48.8-129.2-63.9-48.1-15.9-98.6-24.6-149.2-26.4-51.3-1.8-103.1,3.6-152.8,16.3-47.4,12.1-93.3,30.8-135.3,55.8-40.2,23.9-77.3,53.5-109,88-30.9,33.7-56.9,72-75.8,113.7-19.4,42.7-31.4,88-35.5,134.7-1,11.4-1.5,22.8-1.5,34.2,0,16.4,25.4,16.4,25.4,0,0-11.4.5-22.8,1.5-34.2.2-2.7.5-5.4.8-8.1.1-1.2.3-2.5.4-3.7,0-.8.2-1.7.3-2.5,0-.2.3-2.7.2-1.4-.1.9.3-2,.4-2.6.2-1.4.4-2.9.6-4.3.4-2.9.9-5.7,1.4-8.6,3.9-21.8,9.7-43.3,17.2-64.2,1.8-5,3.7-9.9,5.7-14.9.2-.5,1.5-3.7,1.2-3-.3.7,1-2.4,1.3-3,1.1-2.6,2.3-5.2,3.5-7.8,4.5-9.8,9.4-19.5,14.7-28.9,5.4-9.6,11.2-19,17.3-28.2,3.1-4.6,6.2-9.1,9.5-13.6,1.6-2.2,3.2-4.3,4.8-6.4.3-.5,2.6-3.3,1.4-1.8.9-1.1,1.8-2.3,2.7-3.4,13.9-17.5,29.1-33.9,45.4-49.2,8.3-7.7,16.8-15.1,25.6-22.2,2.1-1.7,4.3-3.4,6.4-5.1-1.4,1.1,1-.8,1.4-1.1,1.3-1,2.7-2,4-3,4.6-3.4,9.2-6.7,13.9-10,18.9-13,38.6-24.6,59.1-34.8,21.4-10.7,40.4-18.4,63.6-26.1,47.2-15.6,93.8-23.7,142.6-25.3,25-.8,50.1,0,75,2.7,6.4.7,11.6,1.3,16.4,2,6.1.9,12.2,1.9,18.2,3,12,2.2,23.9,4.8,35.7,7.8,23.1,5.9,45.9,13.4,68,22.5.7.3,3.1,1.3,2.7,1.1-1.2-.5,1.3.5,1.5.6.6.3,1.2.5,1.8.8,2.8,1.2,5.6,2.4,8.3,3.7,5.3,2.4,10.6,4.9,15.8,7.6,10.4,5.2,20.6,10.7,30.6,16.6,9.9,5.8,19.6,12,29,18.6,4.7,3.2,9.3,6.6,13.9,10,4.7,3.5,6.4,4.8,11.4,8.8,17.5,14.1,34,29.5,49.2,46,15.8,17.1,27.3,31.7,39.9,50.7,12.2,18.3,23,37.6,32.2,57.7,1.1,2.4,2.2,4.8,3.2,7.3.2.5,1.4,3.2,1,2.4-.5-1.2.3.7.3.7.4.9.8,1.9,1.2,2.8,2.1,5.1,4,10.3,5.9,15.5,3.7,10.4,7,21,9.8,31.7,2.8,10.6,5.2,21.2,7.1,32,2.1,12.1,3,18.9,4.1,31.3,1,11.2,1.4,22.3,1.4,33.5,0,16.4,25.4,16.4,25.4,0h0Z" fill="#fff" stroke="#fff" stroke-miterlimit="10" stroke-width="22"/>
  <path d="M830.8,564c0-45.8-4.7-91.7-14.4-136.5-8.9-41.1-22.3-81.2-40.3-119.2-16.2-34.2-36.7-66.6-61.6-95.2-22.2-25.5-48.6-48.1-78.4-64.4-28.8-15.8-60.6-25.5-93.4-27.4-32.8-1.9-65.4,4.6-95.5,17.4-30.6,13-58.1,32.8-81.7,56-26.3,25.8-48.2,56.2-66,88.4-19.8,35.9-35,74.5-45.8,114-11.9,43.3-18.7,88.1-21,132.9-.6,11.3-.9,22.7-.9,34,0,6.6,5.8,13,12.7,12.7,6.9-.3,12.7-5.6,12.7-12.7,0-22.6,1.2-45.3,3.5-67.8.6-5.5,1.2-10.9,1.9-16.3.3-2-.5,3.2,0,.2,0-.6.2-1.2.2-1.8.2-1.2.3-2.4.5-3.6.4-3,.9-5.9,1.4-8.9,1.7-10.5,3.7-21.1,5.9-31.5,4.4-20.2,9.8-40.2,16.4-59.8,3.2-9.6,6.7-19.1,10.5-28.5.9-2.2,1.7-4.3,2.6-6.4.2-.4.5-1,.6-1.5-.8,3-.6,1.3-.2.4.5-1.2,1.1-2.5,1.6-3.7,1.9-4.4,3.9-8.8,6-13.2,8.1-17,17.1-33.5,27.3-49.4,4.8-7.5,9.9-14.9,15.3-22.1.7-.9,1.3-1.8,2-2.6.5-.7,3-3.8.5-.6,1.4-1.7,2.7-3.4,4.1-5.1,2.7-3.4,5.5-6.7,8.3-9.9,11-12.7,22.9-24.6,35.9-35.3,1.5-1.2,2.9-2.4,4.4-3.6.8-.6,1.6-1.2,2.4-1.9,1.3-1-2.7,2-.7.6.4-.3.9-.7,1.3-1,3.3-2.5,6.6-4.9,9.9-7.2,6.4-4.4,13.1-8.5,19.9-12.3,6.7-3.7,13.6-7,20.7-10.1-3.8,1.7-1.1.4-.1,0,1-.4,2-.8,2.9-1.2,1.8-.7,3.5-1.4,5.3-2,3.5-1.3,7.1-2.5,10.7-3.5,7.2-2.2,14.5-3.9,21.9-5.2,1.8-.3,3.7-.6,5.6-.9.8-.1,1.7-.2,2.5-.4-4.7.7-.4,0,.7,0,3.8-.4,7.5-.8,11.3-1,7.7-.4,15.4-.4,23.1,0,3.8.2,7.5.6,11.3,1,.4,0,.8.1,1.2.2,2,.2-1.5-.2-1.5-.2.9.1,1.9.3,2.8.4,2,.3,3.9.6,5.9,1,7.4,1.4,14.7,3.1,21.9,5.3,3.6,1.1,7.2,2.3,10.7,3.6,1.8.6,3.5,1.3,5.3,2,.8.3,1.6.6,2.3.9.4.2.8.3,1.2.5,2.2.9-2.7-1.2-.7-.3,14.3,6.2,28,13.8,40.8,22.7,3.3,2.3,6.5,4.6,9.7,7,.4.3.9.7,1.3,1,0,0-2.6-2-1-.8.7.6,1.4,1.1,2.1,1.7,1.8,1.4,3.5,2.8,5.2,4.3,6.3,5.3,12.4,10.8,18.2,16.6,6,6,11.8,12.2,17.3,18.6,2.8,3.3,5.6,6.6,8.3,10,.7.9,1.4,1.7,2,2.6.5.7,2.8,3.9.5.6,1.3,1.8,2.7,3.5,4,5.3,10.9,14.7,20.7,30.2,29.5,46.3,4.6,8.3,8.9,16.8,12.9,25.3,2.1,4.5,4.2,9,6.1,13.6.4,1,.9,2,1.3,3,.9,2-.3-.5-.3-.8.2.6.5,1.3.8,1.9,1,2.4,2,4.8,2.9,7.2,7.5,18.8,13.8,38,19.2,57.5,5.6,20.6,10,41.4,13.4,62.5.4,2.5.8,5.1,1.2,7.6.2,1.3.4,2.7.6,4,.1.7.2,1.5.3,2.2-.1-1.5-.3-2,0-.2.7,5.4,1.4,10.9,1.9,16.4,1.2,11.2,2,22.5,2.6,33.8.6,11,.8,22.1.8,33.1,0,6.6,5.8,13,12.7,12.7,6.9-.3,12.7-5.6,12.7-12.7h0Z" fill="#fff" stroke="#fff" stroke-miterlimit="10" stroke-width="22"/>
  <path d="M518.5,85.8v458.7c0,6.2,0,12.4,0,18.6,0,.3,0,.5,0,.8,0,6.6,5.8,13,12.7,12.7,6.9-.3,12.7-5.6,12.7-12.7V105.3c0-6.2,0-12.4,0-18.6,0-.3,0-.5,0-.8,0-6.6-5.8-13-12.7-12.7-6.9.3-12.7,5.6-12.7,12.7h0Z" fill="#fff" stroke="#fff" stroke-miterlimit="10" stroke-width="22"/>
  <path d="M518.5,563.1v346.5c0,4,0,8,0,12,0,3.2-.2,6.5-.6,9.7.2-1.1.3-2.3.5-3.4-.8,6-2.4,11.7-4.6,17.3-.7,1.8.6-1.5.6-1.5,0,.2-.4.8-.5,1-.3.7-.6,1.4-1,2.1-.7,1.4-1.4,2.7-2.1,4-1.4,2.5-3.1,5-4.8,7.3-1.5,2,1.7-2.1.4-.6-.5.6-.9,1.2-1.4,1.7-1,1.1-2,2.2-3,3.3-2,2.1-4.2,4-6.4,5.9-2.1,1.7,2.2-1.6.6-.4-.6.4-1.2.9-1.8,1.3-1.2.9-2.5,1.7-3.8,2.5-2.5,1.5-5.1,2.9-7.7,4.1-.3.2-.7.3-1,.5-1.4.6,3.1-1.2,1.2-.5-.8.3-1.6.6-2.4.9-1.5.6-3.1,1.1-4.6,1.5-3.4,1-6.8,1.7-10.3,2.1,1.1-.2,2.3-.3,3.4-.5-6.3.8-12.7.8-19.1,0,1.1.2,2.3.3,3.4.5-6-.8-11.7-2.4-17.3-4.6-1.8-.7,1.5.6,1.5.6-.2,0-.8-.4-1-.5-.7-.3-1.4-.6-2.1-1-1.4-.7-2.7-1.4-4-2.1-2.5-1.4-5-3.1-7.3-4.8-2-1.5,2.1,1.7.6.4-.6-.5-1.2-.9-1.7-1.4-1.1-1-2.2-2-3.3-3-2.1-2-4-4.2-5.9-6.4-1.7-2.1,1.6,2.2.4.6-.4-.6-.9-1.2-1.3-1.8-.9-1.2-1.7-2.5-2.5-3.8-1.5-2.5-2.9-5.1-4.1-7.7-.2-.3-.3-.7-.5-1-.6-1.4,1.2,3.1.5,1.2-.3-.8-.6-1.6-.9-2.4-.6-1.5-1.1-3.1-1.5-4.6-1-3.4-1.7-6.8-2.1-10.3.2,1.1.3,2.3.5,3.4-.8-6-.6-12.1-.6-18.1v-15.3c0-6.6-5.8-13-12.7-12.7-6.9.3-12.7,5.6-12.7,12.7s0,16.3,0,24.5c.2,19.4,7.1,37.7,19.1,52.8,11,13.9,27.2,24.1,44.3,28.4,19,4.8,38.5,2.7,56.3-5.2,29.9-13.2,49-44.6,49.1-76.9,0-7.4,0-14.8,0-22.2v-336.1c0-6.6-5.8-13-12.7-12.7-6.9.3-12.7,5.6-12.7,12.7h0Z" fill="#fff" stroke="#fff" stroke-miterlimit="10" stroke-width="22"/>
  <path d="M65.8,564c0-4.3.3-8.5.8-12.8l-.5,3.4c1.1-8.4,3.4-16.6,6.6-24.3-.4,1-.9,2-1.3,3,3.2-7.6,7.4-14.8,12.4-21.3-.7.9-1.3,1.7-2,2.6,5-6.5,10.8-12.3,17.3-17.3-.9.7-1.7,1.3-2.6,2,6.5-5,13.7-9.2,21.3-12.4l-3,1.3c7.8-3.3,16-5.5,24.3-6.6-1.1.2-2.3.3-3.4.5,8.5-1.1,17.1-1.1,25.5,0-1.1-.2-2.3-.3-3.4-.5,8.4,1.1,16.6,3.4,24.3,6.6l-3-1.3c7.6,3.2,14.8,7.4,21.3,12.4-.9-.7-1.7-1.3-2.6-2,6.5,5,12.3,10.8,17.3,17.3-.7-.9-1.3-1.7-2-2.6,5,6.5,9.2,13.7,12.4,21.3-.4-1-.9-2-1.3-3,3.3,7.8,5.5,16,6.6,24.3l-.5-3.4c.6,4.2.8,8.5.8,12.8,0,3.3,1.4,6.7,3.7,9,2.2,2.2,5.8,3.9,9,3.7,3.3-.1,6.7-1.2,9-3.7,2.3-2.5,3.7-5.5,3.7-9,0-6.2-.7-12.4-1.6-18.5-.8-4.9-2-9.8-3.5-14.6-3.3-10.2-8.1-20.1-14.3-28.8-3.4-4.7-7-9.3-11-13.5-4.1-4.2-8.6-7.9-13.2-11.5-8.6-6.6-18.2-11.5-28.4-15.2-10.4-3.8-21.5-5.8-32.6-6.2-5-.2-10.1,0-15.1.6-6.1.7-12.1,1.7-17.9,3.4-5.7,1.6-11.3,3.8-16.7,6.3-4.4,2-8.7,4.4-12.8,7.1-8.9,5.8-17.1,12.9-23.9,21.1-3.7,4.5-7.2,9.2-10.2,14.1-3.1,5.1-5.5,10.4-7.8,15.9-4.2,10.3-6.5,21.2-7.3,32.3-.2,2.5-.3,5-.3,7.5,0,3.3,1.4,6.7,3.7,9,2.2,2.2,5.8,3.9,9,3.7,3.3-.1,6.7-1.2,9-3.7,2.3-2.5,3.7-5.5,3.7-9h0Z" fill="#fff" stroke="#fff" stroke-miterlimit="10" stroke-width="22"/>
  <path d="M830.8,564c0-4.3.3-8.5.8-12.8l-.5,3.4c1.1-8.4,3.4-16.6,6.6-24.3-.4,1-.9,2-1.3,3,3.2-7.6,7.4-14.8,12.4-21.3-.7.9-1.3,1.7-2,2.6,5-6.5,10.8-12.3,17.3-17.3-.9.7-1.7,1.3-2.6,2,6.5-5,13.7-9.2,21.3-12.4l-3,1.3c7.8-3.3,16-5.5,24.3-6.6-1.1.2-2.3.3-3.4.5,8.5-1.1,17.1-1.1,25.5,0-1.1-.2-2.3-.3-3.4-.5,8.4,1.1,16.6,3.4,24.3,6.6-1-.4-2-.9-3-1.3,7.6,3.2,14.8,7.4,21.3,12.4-.9-.7-1.7-1.3-2.6-2,6.5,5,12.3,10.8,17.3,17.3-.7-.9-1.3-1.7-2-2.6,5,6.5,9.2,13.7,12.4,21.3-.4-1-.9-2-1.3-3,3.3,7.8,5.5,16,6.6,24.3-.2-1.1-.3-2.3-.5-3.4.6,4.2.8,8.5.8,12.8,0,3.3,1.4,6.7,3.7,9,2.2,2.2,5.8,3.9,9,3.7,3.3-.1,6.7-1.2,9-3.7,2.3-2.5,3.7-5.5,3.7-9,0-6.2-.7-12.4-1.6-18.5-.8-4.9-2-9.8-3.5-14.6-3.3-10.2-8.1-20.1-14.3-28.8-3.4-4.7-7-9.3-11-13.5-4.1-4.2-8.6-7.9-13.2-11.5-8.6-6.6-18.2-11.5-28.4-15.2-10.4-3.8-21.5-5.8-32.6-6.2-5-.2-10.1,0-15.1.6-6.1.7-12.1,1.7-17.9,3.4-5.7,1.6-11.3,3.8-16.7,6.3-4.4,2-8.7,4.4-12.8,7.1-8.9,5.8-17.1,12.9-23.9,21.1-3.7,4.5-7.2,9.2-10.2,14.1-3.1,5.1-5.5,10.4-7.8,15.9-4.2,10.3-6.5,21.2-7.3,32.3-.2,2.5-.3,5-.3,7.5,0,3.3,1.4,6.7,3.7,9,2.2,2.2,5.8,3.9,9,3.7,3.3-.1,6.7-1.2,9-3.7,2.3-2.5,3.7-5.5,3.7-9h0Z" fill="#fff" stroke="#fff" stroke-miterlimit="10" stroke-width="22"/>
  <path d="M257,564c0-2.8.2-5.7.6-8.5l-.5,3.4c.8-6,2.5-11.9,4.8-17.5-.4,1-.9,2-1.3,3,2.7-6.4,6.3-12.3,10.6-17.8-.7.9-1.3,1.7-2,2.6,5.4-7,11.9-13.2,18.9-18.6-.9.7-1.7,1.3-2.6,2,9.8-7.6,20.7-13.6,32.1-18.4l-3,1.3c15.4-6.5,31.7-10.7,48.2-12.9l-3.4.5c18.8-2.5,37.9-2.5,56.7,0-1.1-.2-2.3-.3-3.4-.5,16.5,2.2,32.8,6.4,48.2,12.9l-3-1.3c11.4,4.8,22.3,10.9,32.1,18.4-.9-.7-1.7-1.3-2.6-2,7,5.4,13.4,11.6,18.9,18.6-.7-.9-1.3-1.7-2-2.6,4.2,5.5,7.8,11.4,10.6,17.8-.4-1-.9-2-1.3-3,2.4,5.6,4,11.5,4.8,17.5l-.5-3.4c.4,2.8.6,5.7.6,8.5,0,3.3,1.4,6.7,3.7,9,2.2,2.2,5.8,3.9,9,3.7,6.9-.3,12.7-5.6,12.7-12.7,0-24.7-12.3-47.5-30-64.2-20.3-19.1-46.5-31.3-73.4-37.9-31.1-7.6-63.7-8.1-95.1-2.2-28,5.3-55,16.5-77.2,34.5-9.4,7.6-17.7,16.8-24.1,27.2-3.3,5.4-6,11.2-8.1,17.1-2.1,5.8-3.2,11.8-3.9,18-.3,2.5-.4,5-.4,7.6,0,3.3,1.4,6.7,3.7,9,2.2,2.2,5.8,3.9,9,3.7,6.9-.3,12.7-5.6,12.7-12.7h0Z" fill="#fff" stroke="#fff" stroke-miterlimit="10" stroke-width="22"/>
  <path d="M543.9,564c0-2.8.2-5.7.6-8.5-.2,1.1-.3,2.3-.5,3.4.8-6,2.5-11.9,4.8-17.5-.4,1-.9,2-1.3,3,2.7-6.4,6.3-12.3,10.6-17.8-.7.9-1.3,1.7-2,2.6,5.4-7,11.9-13.2,18.9-18.6-.9.7-1.7,1.3-2.6,2,9.8-7.6,20.7-13.6,32.1-18.4l-3,1.3c15.4-6.5,31.7-10.7,48.2-12.9l-3.4.5c18.8-2.5,37.9-2.5,56.7,0l-3.4-.5c16.5,2.2,32.8,6.4,48.2,12.9-1-.4-2-.9-3-1.3,11.4,4.8,22.3,10.9,32.1,18.4-.9-.7-1.7-1.3-2.6-2,7,5.4,13.4,11.6,18.9,18.6-.7-.9-1.3-1.7-2-2.6,4.2,5.5,7.8,11.4,10.6,17.8l-1.3-3c2.4,5.6,4,11.5,4.8,17.5-.2-1.1-.3-2.3-.5-3.4.4,2.8.6,5.7.6,8.5,0,3.3,1.4,6.7,3.7,9,2.2,2.2,5.8,3.9,9,3.7,6.9-.3,12.7-5.6,12.7-12.7,0-24.7-12.3-47.5-30-64.2-20.3-19.1-46.5-31.3-73.4-37.9-31.1-7.6-63.7-8.1-95.1-2.2-28,5.3-55,16.5-77.2,34.5-9.4,7.6-17.7,16.8-24.1,27.2-3.3,5.4-6,11.2-8.1,17.1-2.1,5.8-3.2,11.8-3.9,18-.3,2.5-.4,5-.4,7.6,0,3.3,1.4,6.7,3.7,9,2.2,2.2,5.8,3.9,9,3.7,6.9-.3,12.7-5.6,12.7-12.7h0Z" fill="#fff" stroke="#fff" stroke-miterlimit="10" stroke-width="22"/>
</svg>