<?xml version="1.0" encoding="UTF-8"?>
<svg id="Ebene_1" xmlns="http://www.w3.org/2000/svg" version="1.1" viewBox="0 0 1067.6 1073.9">
  <!-- Generator: Adobe Illustrator 30.2.0, SVG Export Plug-In . SVG Version: 2.1.1 Build 105)  -->
  <path d="M821.4,274.3c-25.1-24.5-58.2-38-93.3-38s-26.7,2-39.4,5.9c-5.1-22.2-32-60.2-44.5-77.9-3.8-5.4-9.7-8.8-15.1-4.9-5.3,3.9-6.5,11.4-2.6,16.7,13,17.9,36.2,56,40.1,77.6.9,5.1,4,9.5,8.5,12.1,4.5,2.6,9.9,3,14.8,1.2,12.2-4.5,25-6.8,38.1-6.8,28.8,0,56,11.1,76.6,31.2,20.5,20,32.3,46.8,33.1,75.4v26.7c0,3.6-2.9,6.5-6.5,6.5h-222.3l-24.1-75c-2.7-8.3-10.3-13.8-19-13.8h-105.4c-6.5,0-12.7,3.2-16.4,8.6-3.7,5.4-4.6,12.2-2.3,18.3l23.2,61.9H202.7c-3.6,0-6.5-2.9-6.5-6.5v-26.7c.8-28.6,12.6-55.4,33.1-75.4,20.6-20.1,47.8-31.2,76.6-31.2s33.9,3.9,49.3,11.7c5,2.5,10.9,2.5,15.8-.1,5-2.6,8.5-7.5,9.3-13.1,4.9-34.2,22.1-65.6,48.2-88.4,26.4-23,60.3-35.2,95.4-35.7s77,14.9,102.6,41.6,10.3.9,13.9-4.7c3.6-5.5,1.3-11.9-3.4-16.6-26.7-27.1-71.1-45.2-113.2-44.3-40.9.9-80.3,14.8-111.1,41.6-1.2,1-2.3,2.1-3.4,3.1-19-32.2-54.1-52.8-92.2-52.8s-91.9,34-103.7,80.8c-8.1-2.8-16.8-6.5-25.3-4.7-47.2,9.9-52.8,33.5-55.1,39.7-4.7,13,7.7-17.5,54.3-15.8s17.7,2.5,25.7,6.5c2.1,1.1,4.5,1.6,6.8,1.6s4.8-.6,7-1.7c4.4-2.3,7.4-6.5,8.1-11.4,5.9-40.5,41.2-71,82.2-71s61.3,18.8,75,47.4c-17,21.2-28.8,46.2-34.1,73-16.5-7-34-10.6-52.1-10.6-35.1,0-68.2,13.5-93.3,38-1.1,1.1-2.2,2.2-3.2,3.3h-85.7v-15.3c.5-16.7,5.7-33.3,17.2-46.2,8.3-9.3,36.6-20.2,34.9-25.9-1.8-6.3-20.9-3.5-42.4,12.9s-33,35.5-33.6,58.7c0,.1,0,.2,0,.3v16.2c0,12.7,10.4,23.1,23.1,23.1h68.3c-11.6,19.5-18.2,41.6-18.8,64.8,0,.1,0,.2,0,.3v26.8c0,16.8,13.6,30.4,30.4,30.4h271.3l22.3,59.5h-21.1c-7.5,0-14.3,4.1-17.7,10.8-3.4,6.7-2.8,14.6,1.5,20.7l30.7,42.8c3.8,5.4,41.1,62.2,47.6,57.5,13.5-9.8,53.4,37-28.1-71.4l-26.1-36.5h19.1c6.5,0,12.7-3.2,16.4-8.6,3.7-5.4,4.6-12.2,2.3-18.3l-54.5-145.3h96.8l56.9,177.4h-28.3c-6.2,0-11.9,2.8-15.7,7.7-3.8,4.9-5.1,11.2-3.6,17.2l37.8,147.7-68.5-95.7c-3.8-5.4-11.3-6.6-16.7-2.8-5.4,3.8-6.6,11.3-2.8,16.7l90.8,126.9c3.3,4.6,8.3,7,13.5,7s4.8-.5,7.2-1.6c7.4-3.5,11.2-11.4,9.1-19.3l-46.1-179.8h28.6c6.3,0,12.4-3.1,16.1-8.2h0c3.7-5.1,4.8-11.8,2.9-17.8l-27.7-86.4h214.6c16.8,0,30.4-13.6,30.4-30.4v-26.8c0-.1,0-.2,0-.3-1-34.9-15.3-67.6-40.3-92h0Z" fill="#fff" stroke="#fff" stroke-miterlimit="10" stroke-width="18"/>
  <path d="M312.7,606.7l11.8-44.1,32.3,32.3c6.7,6.7,9.3,16.3,6.8,25.5-2.5,9.2-9.4,16.2-18.6,18.6-9.2,2.5-18.7,0-25.5-6.8-6.7-6.7-9.3-16.3-6.8-25.5h0ZM351.1,662.1c17.6-4.7,30.8-18,35.6-35.6,4.7-17.6-.2-35.7-13-48.6l-42.3-42.3c-4-4-9.8-5.5-15.2-4.1-5.4,1.5-9.7,5.7-11.1,11.1l-15.5,57.8c-4.7,17.6.2,35.7,13,48.6,9.6,9.6,22.2,14.8,35.3,14.8,4.4,0,8.8-.6,13.2-1.8h0Z" fill="#fff" stroke="#fff" stroke-miterlimit="10" stroke-width="18"/>
  <path d="M803.7,620.4c-2.5,9.2-9.4,16.2-18.6,18.6-9.2,2.5-18.7,0-25.5-6.8-6.7-6.7-9.3-16.3-6.8-25.5l11.8-44.1,32.3,32.3c6.7,6.7,9.3,16.3,6.8,25.5h0ZM771.5,535.7c-4-4-9.8-5.5-15.2-4.1-5.4,1.5-9.7,5.7-11.1,11.1l-15.5,57.8c-4.7,17.6.2,35.7,13,48.6,9.6,9.6,22.2,14.8,35.3,14.8s8.8-.6,13.2-1.8c17.6-4.7,30.8-18,35.6-35.6,4.7-17.6-.2-35.7-13-48.6l-42.3-42.3h0Z" fill="#fff" stroke="#fff" stroke-miterlimit="10" stroke-width="18"/>
  <path d="M501.3,765.5h0c-2.5,9.2-9.4,16.2-18.6,18.6-9.2,2.5-18.7,0-25.5-6.8-6.7-6.7-9.3-16.3-6.8-25.5l11.8-44.1,32.3,32.3c6.7,6.7,9.3,16.3,6.8,25.5h0ZM469.1,680.8c-4-4-9.8-5.5-15.2-4.1-5.4,1.5-9.7,5.7-11.1,11.1l-15.5,57.8c-4.7,17.6.2,35.7,13,48.6,9.6,9.6,22.2,14.8,35.3,14.8,4.4,0,8.8-.6,13.2-1.8,17.6-4.7,30.8-18,35.6-35.6,4.7-17.6-.2-35.7-13-48.6l-42.3-42.3h0Z" fill="#fff" stroke="#fff" stroke-miterlimit="10" stroke-width="18"/>
  <path d="M966.6,769.3h0c-2.5,9.2-9.4,16.2-18.6,18.6-9.2,2.5-18.7,0-25.5-6.8-6.7-6.7-9.3-16.3-6.8-25.5l11.8-44.1,32.3,32.3c6.7,6.7,9.3,16.3,6.8,25.5h0ZM934.4,684.6c-4-4-9.8-5.5-15.2-4.1-5.4,1.5-9.7,5.7-11.1,11.1h0s-15.5,57.8-15.5,57.8c-4.7,17.6.2,35.7,13,48.6,9.6,9.6,22.2,14.8,35.3,14.8s8.8-.6,13.2-1.8c17.6-4.7,30.8-18,35.6-35.6,1.2-4.4,1.8-8.8,1.8-13.2h0c0-13.1-5.1-25.8-14.8-35.4l-42.3-42.3h0Z" fill="#fff" stroke="#fff" stroke-miterlimit="10" stroke-width="18"/>
  <path d="M252,780.2c-2.5,9.2-9.4,16.2-18.6,18.6-9.2,2.5-18.7,0-25.5-6.8-6.7-6.7-9.3-16.3-6.8-25.5l11.8-44.1,32.3,32.3c6.7,6.7,9.3,16.3,6.8,25.5h0ZM219.8,695.5c-4-4-9.8-5.5-15.2-4.1-5.4,1.5-9.7,5.7-11.1,11.1l-15.5,57.8c-4.7,17.6.2,35.7,13,48.6,9.6,9.6,22.2,14.8,35.3,14.8s8.8-.6,13.2-1.8c17.6-4.7,30.8-18,35.6-35.6,4.7-17.6-.2-35.7-13-48.6l-42.3-42.3h0Z" fill="#fff" stroke="#fff" stroke-miterlimit="10" stroke-width="18"/>
  <path d="M399.1,917.8c-2.5,9.2-9.4,16.2-18.6,18.6-9.2,2.5-18.7,0-25.5-6.8-6.7-6.7-9.3-16.3-6.8-25.5l11.8-44.1,32.3,32.3c6.7,6.7,9.3,16.3,6.8,25.5h0ZM366.9,833.1c-4-4-9.8-5.5-15.2-4.1-5.4,1.5-9.7,5.7-11.1,11.1h0s-15.5,57.8-15.5,57.8c-4.7,17.6.2,35.7,13,48.6,9.6,9.6,22.2,14.8,35.3,14.8s8.8-.6,13.2-1.8c17.6-4.7,30.8-18,35.6-35.6,4.7-17.6-.2-35.7-13-48.6l-42.3-42.3h0Z" fill="#fff" stroke="#fff" stroke-miterlimit="10" stroke-width="18"/>
  <path d="M770.6,882.9c-2.5,9.2-9.4,16.2-18.6,18.6-9.2,2.5-18.7,0-25.5-6.8-6.7-6.7-9.3-16.3-6.8-25.5l11.8-44.1,32.3,32.3c6.7,6.7,9.3,16.3,6.8,25.5h0ZM738.3,798.3c-4-4-9.8-5.5-15.2-4.1-5.4,1.5-9.7,5.7-11.1,11.1h0s-15.5,57.8-15.5,57.8c-4.7,17.6.2,35.7,13,48.6,9.6,9.6,22.2,14.8,35.3,14.8s8.8-.6,13.2-1.8c17.6-4.7,30.8-18,35.6-35.6,4.7-17.6-.2-35.7-13-48.6l-42.3-42.3h0Z" fill="#fff" stroke="#fff" stroke-miterlimit="10" stroke-width="18"/>
</svg>