<?xml version="1.0" encoding="UTF-8"?>
<svg id="Ebene_1" xmlns="http://www.w3.org/2000/svg" version="1.1" viewBox="0 0 1067.6 1073.9">
  <!-- Generator: Adobe Illustrator 30.2.0, SVG Export Plug-In . SVG Version: 2.1.1 Build 105)  -->
  <g>
    <path d="M478.6,432.4l23.5,246.6c1.7,18,16.8,31.7,34.9,31.7s33.1-13.7,34.9-31.7l23.5-246.6c0-32.3-26.1-58.4-58.4-58.4s-58.4,26.1-58.4,58.4Z" fill="#fff"/>
    <circle cx="537" cy="800.9" r="49.9" fill="#fff"/>
  </g>
  <path d="M1006.8,879L579.7,139.4c-8.8-15.2-25.2-24.7-42.7-24.7s-33.9,9.5-42.7,24.7L67.3,879c-8.8,15.2-8.8,34.1,0,49.3,8.8,15.2,25.2,24.7,42.7,24.7h854c17.6,0,33.9-9.5,42.7-24.7,8.8-15.2,8.8-34.1,0-49.3ZM940.8,890.2H133.3L537,190.9l403.7,699.3Z" fill="#fff"/>
</svg>