<?xml version="1.0" encoding="UTF-8"?>
<svg id="Ebene_1" xmlns="http://www.w3.org/2000/svg" version="1.1" viewBox="0 0 1067.6 1073.9">
  <!-- Generator: Adobe Illustrator 30.2.0, SVG Export Plug-In . SVG Version: 2.1.1 Build 105)  -->
  <polygon points="637.8 527.4 611.2 527.4 543.1 527.4 543.1 558.9 611.2 558.9 611.2 590.5 543.1 590.5 543.1 622.1 611.2 622.1 611.2 653.6 543.1 653.6 543.1 685.2 611.2 685.2 637.8 685.2 644.9 685.2 644.9 527.4 637.8 527.4" fill="#fff"/>
  <rect x="543.1" y="462.5" width="101.8" height="33.9" fill="#fff"/>
  <rect x="543.1" y="399.1" width="101.8" height="33.9" fill="#fff"/>
  <polygon points="475 241.3 448.4 241.3 441.2 241.3 441.2 399.1 448.4 399.1 475 399.1 543.1 399.1 543.1 367.5 475 367.5 475 336 543.1 336 543.1 304.4 475 304.4 475 272.8 543.1 272.8 543.1 241.3 475 241.3" fill="#fff"/>
  <rect x="441.2" y="176.4" width="101.8" height="33.9" fill="#fff"/>
  <rect x="441.2" y="113" width="101.8" height="33.9" fill="#fff"/>
  <polygon points="475 813.5 448.4 813.5 441.2 813.5 441.2 971.3 448.4 971.3 475 971.3 543.1 971.3 543.1 939.7 475 939.7 475 908.2 543.1 908.2 543.1 876.6 475 876.6 475 845 543.1 845 543.1 813.5 475 813.5" fill="#fff"/>
  <rect x="441.2" y="748.6" width="101.8" height="33.9" fill="#fff"/>
  <rect x="441.2" y="685.2" width="101.8" height="33.9" fill="#fff"/>
  <rect x="441.2" y="62.7" width="203.7" height="954.5" rx="26.9" ry="26.9" fill="none" stroke="#fff" stroke-miterlimit="10" stroke-width="36"/>
</svg>