<?xml version="1.0" encoding="UTF-8"?>
<svg id="Ebene_1" xmlns="http://www.w3.org/2000/svg" version="1.1" viewBox="0 0 1067.6 1073.9">
  <!-- Generator: Adobe Illustrator 30.2.0, SVG Export Plug-In . SVG Version: 2.1.1 Build 105)  -->
  <path d="M1009.9,534.9c-.2-23.6-18-43-40.8-45.9-.9-11.2-1.6-22.7-2.4-34.8-6.7-99.7-24.8-225.8-88.2-288.1-38.8-38.1-100.5-29.9-162.1-38.4-39.1-5.4-64.9-19.4-103.7-21.3-12-.6-23.6-1.2-34.8-1.8-3.4-22.7-23-40.1-46.6-39.9-23.6.2-43,18-45.9,40.7-11.2.9-22.8,4.4-34.8,2.4-193-31.3-223.8,47.1-286.1,110.4-62.3,63.4-48.7,150.9-61.7,243.5-1.7,12-1.2,23.6-1.8,34.8-22.7,3.4-40.1,23-39.9,46.6.2,23.6,18,43,40.7,45.9.9,11.2,1.6,22.7,2.4,34.7,2.9,42.4,26.8,72.2,38,107.9,15.1,48.2,36.1,123.9,72.5,159.6,63.4,62.3,143.7,75.3,243.5,80.2,12.1.6,23.6,1.2,34.8,1.8,3.3,22.7,23,40.2,46.6,40,23.6-.2,43-18,45.9-40.8,11.2-.9,22.7-1.5,34.7-2.4,82.5-6.7,131.8,26.9,186.5-15.4,70.3-54.4,148.7-206.6,161.3-338.6,1.1-12,1.2-23.6,1.8-34.8,22.7-3.3,40.2-23,40-46.6ZM848.9,194.7c55.8,54.8,83.5,166.7,89.8,261.4.8,11.3,1.5,22.1,2.3,32.6l-18.9.2c-.2-1.6-.4-3.3-.7-4.9-.2-1.6-.5-3.2-.7-4.8-.4-2.3-.7-4.6-1.1-6.9-.3-1.7-.6-3.5-.9-5.2-.6-3-1.1-5.9-1.8-8.8-.6-2.8-1.2-5.5-1.8-8.2-.3-1.1-.5-2.3-.8-3.4-.6-2.7-1.3-5.3-2-8,0-.2-.1-.5-.2-.7-.8-2.8-1.5-5.7-2.3-8.5,0-.2-.2-.4-.2-.6-38-128.8-140.9-229.9-270.4-265.7-.2,0-.3-.2-.5-.2-2.5-.7-5-1.3-7.6-1.9-.7-.2-1.4-.4-2.1-.5-2.3-.6-4.7-1.1-7-1.6-1.9-.4-3.9-.9-5.8-1.3-1.6-.3-3.2-.7-4.8-1-3.9-.8-7.9-1.5-11.9-2.1-.3,0-.6,0-.9-.1-6.5-1.1-13.1-2-19.7-2.7l-.2-19c10.6.6,21.4,1.2,32.6,1.7,38.1,1.9,64.5,21.8,102.5,27.1,56.6,7.8,101.7.4,135.1,33.2ZM651.3,881.9l-32.2-135.8c57.2-23.2,102.6-69.4,124.8-127l136.4,29.8c-34.9,109.3-120.4,196.3-229,233.1ZM620.6,890.8c-.4,0-.7.2-1.1.3-2.6.6-5.2,1.2-7.8,1.8-.8.2-1.5.3-2.3.5-2.3.5-4.6,1-6.9,1.4-3.2.6-6.4,1.2-9.6,1.7-.5,0-1,.2-1.5.2-3,.5-6.1.9-9.1,1.3-.4,0-.7,0-1.1.1-3.3.4-6.6.8-9.9,1.1-.1,0-.2,0-.3,0-21.5,2.1-43.2,2.3-64.7.6-.1,0-.3,0-.4,0-3.3-.3-6.5-.6-9.8-.9-.4,0-.8,0-1.2-.1-3-.3-6-.7-9-1.1-.6,0-1.1-.1-1.7-.2-3.1-.4-6.1-.9-9.1-1.4-2.5-.4-5.1-.9-7.6-1.4-.7-.1-1.3-.2-2-.4-2.7-.5-5.3-1.1-7.9-1.7-.3,0-.6-.1-.9-.2-1.3-.3-2.6-.6-4-.9l29.6-135.4c4.2,1,8.5,1.9,12.8,2.7.8.2,1.6.3,2.5.4,3.5.6,7.1,1.1,10.6,1.6.9.1,1.9.2,2.8.3,3.7.4,7.4.7,11.2.9.6,0,1.3,0,1.9.1,4.4.2,8.9.4,13.4.3,4.5,0,9-.3,13.4-.6.6,0,1.3-.1,1.9-.2,3.8-.3,7.5-.7,11.2-1.1.9-.1,1.9-.3,2.8-.4,3.6-.5,7.1-1.1,10.6-1.8.8-.2,1.6-.3,2.4-.5,4.3-.9,8.5-1.8,12.7-2.9l31.9,134.8c-1.3.3-2.6.7-3.9,1ZM192.6,654.9l135.8-32.2c23.2,57.2,69.4,102.6,127,124.8l-29.8,136.4c-109.3-34.9-196.3-120.4-233.1-229ZM419.6,196.2l32.2,135.8c-57.2,23.2-102.6,69.4-124.8,127l-136.4-29.8c34.9-109.3,120.4-196.3,229-233.1ZM450.6,187.2c.1,0,.3,0,.4,0,2.8-.7,5.5-1.3,8.3-1.9.5-.1,1-.2,1.5-.3,2.7-.6,5.4-1.1,8.1-1.6,3-.6,6-1.1,9-1.6.5,0,1-.2,1.6-.2,3-.5,6.1-.9,9.2-1.3.3,0,.6,0,.9-.1,3.4-.4,6.8-.8,10.2-1.1,0,0,0,0,0,0,21.6-2.1,43.4-2.3,65-.6,0,0,0,0,0,0,3.4.3,6.8.6,10.2,1,.3,0,.7,0,1,.1,3.1.3,6.1.7,9.1,1.1.5,0,1.1.1,1.6.2,3,.4,6,.9,9,1.4,2.7.5,5.4.9,8,1.5.5.1,1.1.2,1.6.3,2.8.5,5.5,1.1,8.3,1.7.2,0,.3,0,.5.1,1.4.3,2.7.6,4.1,1l-29.6,135.4c-4.2-1-8.5-1.9-12.8-2.7-.8-.1-1.5-.3-2.3-.4-3.6-.6-7.2-1.2-10.8-1.6-.9-.1-1.8-.2-2.7-.3-3.8-.4-7.6-.7-11.4-1-.6,0-1.2,0-1.7-.1-4.5-.2-8.9-.4-13.4-.3-4.5,0-9,.3-13.4.6-.6,0-1.2.1-1.8.1-3.8.3-7.6.7-11.4,1.2-.9.1-1.8.2-2.7.4-3.6.5-7.2,1.1-10.8,1.8-.8.1-1.5.3-2.3.4-4.3.9-8.6,1.8-12.8,2.9l-31.9-134.8c1.4-.3,2.7-.7,4.1-1ZM878.3,423.2l-135.8,32.2c-23.2-57.2-69.4-102.6-127-124.8l29.8-136.4c109.3,34.9,196.3,120.4,233.1,229ZM897.3,546c0,1.1,0,2.2,0,3.4,0,2.3-.1,4.5-.2,6.8,0,1.3-.1,2.7-.2,4-.1,2-.2,4-.4,6-.1,1.5-.2,2.9-.4,4.4-.2,1.8-.3,3.6-.5,5.5-.2,1.6-.3,3.2-.5,4.8-.2,1.5-.4,3.1-.6,4.6-1.4,10.8-3.2,21.4-5.6,31.9,0,0,0,.2,0,.2-.3,1.4-.7,2.8-1,4.2l-135.4-29.6c1-4.2,1.9-8.5,2.7-12.7.2-.9.3-1.8.4-2.6.6-3.3,1.1-6.7,1.5-10.1.2-1.2.3-2.4.4-3.6.3-3.2.6-6.4.8-9.6,0-1.2.2-2.4.2-3.6.2-4.3.3-8.6.3-13,0-4.3-.2-8.7-.5-12.9,0-1.2-.2-2.4-.3-3.6-.3-3.2-.6-6.4-1-9.6-.2-1.2-.3-2.4-.5-3.6-.5-3.4-1-6.7-1.7-10.1-.2-.9-.3-1.8-.5-2.6-.9-4.3-1.8-8.5-2.9-12.7l134.8-31.9c.4,1.4.7,2.8,1.1,4.2,0,0,0,.1,0,.2,2.5,10.5,4.5,21.1,6.1,31.9.2,1.5.5,3,.7,4.5.2,1.6.4,3.2.6,4.8.2,1.8.4,3.6.6,5.4.2,1.5.3,3,.4,4.4.2,2,.3,4,.5,6,.1,1.3.2,2.7.3,4.1.1,2.2.3,4.5.4,6.7,0,1.1.1,2.2.2,3.4.1,3.4.2,6.8.2,10.2s0,6.8,0,10.2ZM597,724.5c-1.5.5-3,1-4.5,1.4-1.1.4-2.3.7-3.5,1-1.7.5-3.4,1-5.2,1.4-.8.2-1.6.4-2.4.6-6.7,1.6-13.4,2.9-20.2,3.8-.4,0-.9.1-1.3.2-2.2.3-4.4.5-6.6.7-.6,0-1.2,0-1.7.1-2.2.2-4.5.3-6.8.5,0,0,0,0,0,0-5.1.2-10.3.3-15.4.1,0,0,0,0,0,0-2.3,0-4.5-.2-6.7-.3-.6,0-1.2,0-1.8-.1-2.2-.2-4.4-.4-6.6-.6-.4,0-.9-.1-1.3-.2-6.8-.8-13.5-1.9-20.2-3.4-.8-.2-1.6-.3-2.4-.5-1.7-.4-3.4-.9-5.1-1.3-1.2-.3-2.3-.6-3.5-1-1.5-.4-3-.9-4.5-1.4-59.8-18.7-107.4-65.5-127.2-124.9-.5-1.5-1-3-1.4-4.5-.4-1.2-.7-2.4-1.1-3.7-.4-1.6-.9-3.1-1.3-4.7-.3-1.3-.6-2.6-.9-3.8-.4-1.9-.9-3.7-1.3-5.6-.5-2.3-.9-4.6-1.3-6.9-.2-1.2-.4-2.5-.6-3.7-.3-1.8-.5-3.5-.7-5.3-.1-1.2-.3-2.4-.4-3.6-.2-2-.4-3.9-.5-5.9,0-1-.2-2-.2-3.1-.2-3-.3-6-.3-9s0-6,.2-9c0-1,.1-2,.2-3.1.1-2,.2-3.9.4-5.9.1-1.2.2-2.4.3-3.6.2-1.8.4-3.5.6-5.3.2-1.2.3-2.5.5-3.7.3-2.3.7-4.6,1.2-6.9.4-1.9.7-3.7,1.2-5.6.3-1.3.6-2.6.9-3.9.4-1.6.8-3.2,1.2-4.7.3-1.2.7-2.5,1-3.7.4-1.5.9-3,1.3-4.5,18.7-59.8,65.5-107.4,124.9-127.1,1.5-.5,3.1-1,4.6-1.5,1.1-.3,2.2-.7,3.3-1,1.8-.5,3.5-1,5.3-1.4.7-.2,1.4-.3,2.1-.5,6.8-1.6,13.7-2.9,20.6-3.8.3,0,.7,0,1-.1,2.3-.3,4.5-.5,6.8-.7.5,0,1,0,1.5-.1,9.7-.8,19.5-.9,29.3-.3.5,0,1,0,1.5.1,2.3.2,4.5.4,6.8.6.3,0,.7,0,1,.1,6.9.8,13.8,2,20.7,3.5.7.2,1.4.3,2.1.5,1.8.4,3.6.9,5.4,1.4,1.1.3,2.2.6,3.3.9,1.6.4,3.2.9,4.7,1.4,59.8,18.8,107.4,65.5,127.1,125,.5,1.4.9,2.9,1.4,4.4.4,1.3.8,2.5,1.1,3.8.4,1.5.9,3.1,1.3,4.7.3,1.3.6,2.6.9,3.9.4,1.9.9,3.8,1.3,5.7.5,2.2.9,4.5,1.3,6.8.2,1.2.4,2.5.6,3.8.3,1.7.5,3.5.7,5.3.1,1.2.3,2.4.4,3.6.2,1.9.4,3.9.5,5.9,0,1,.2,2,.2,3.1.2,3,.3,6,.3,9,0,3,0,6-.1,9,0,1-.1,2.1-.2,3.1-.1,2-.2,3.9-.4,5.9-.1,1.2-.2,2.4-.3,3.6-.2,1.8-.4,3.5-.6,5.3-.2,1.3-.3,2.5-.5,3.8-.3,2.3-.7,4.5-1.2,6.8-.4,1.9-.8,3.8-1.2,5.7-.3,1.3-.6,2.6-.9,3.9-.4,1.6-.8,3.1-1.2,4.7-.3,1.3-.7,2.6-1.1,3.8-.4,1.5-.8,2.9-1.3,4.4-18.7,59.8-65.5,107.4-125,127.2ZM315.9,498.5c-.2.9-.3,1.8-.5,2.8-.6,3.3-1.1,6.6-1.5,10-.2,1.2-.3,2.5-.4,3.7-.3,3.2-.6,6.3-.8,9.5,0,1.2-.2,2.4-.2,3.6-.2,4.3-.3,8.6-.3,12.9s.2,8.7.5,12.9c0,1.2.2,2.4.3,3.6.3,3.2.6,6.4,1,9.5.2,1.2.3,2.5.5,3.7.5,3.3,1,6.6,1.7,9.9.2.9.3,1.8.5,2.8.9,4.3,1.8,8.5,2.9,12.6l-134.8,31.9c-.3-1.4-.7-2.7-1-4.1,0-.2,0-.4-.1-.5-.7-2.8-1.3-5.6-1.9-8.4,0-.1,0-.3,0-.4-1.6-7.5-2.9-15.1-4.1-22.7-.2-1.6-.5-3.2-.7-4.8-.2-1.6-.4-3.1-.6-4.7-.2-1.8-.4-3.7-.6-5.5-.2-1.4-.3-2.9-.4-4.3-.2-2-.4-4-.5-6-.1-1.3-.2-2.7-.3-4-.1-2.3-.3-4.5-.4-6.8,0-1.1-.1-2.2-.2-3.4-.1-3.4-.2-6.8-.2-10.2s0-6.8,0-10.2c0-1.1,0-2.2,0-3.4,0-2.3.1-4.5.2-6.8,0-1.3.1-2.7.2-4,.1-2,.2-4,.4-6,.1-1.5.2-2.9.4-4.4.2-1.8.3-3.6.5-5.5.2-1.6.3-3.2.5-4.8.2-1.5.4-3.1.6-4.6,1.4-10.8,3.2-21.5,5.6-31.9,0,0,0-.1,0-.2.3-1.4.7-2.8,1-4.2l135.4,29.6c-1,4.2-1.9,8.4-2.7,12.7ZM512.9,111.6c0-10.4,8.3-18.9,18.6-19,10.4,0,18.9,8.3,19,18.6l.3,37.8-37.6.3-.3-37.8ZM188.9,233.9c54.8-55.8,109.2-131.4,263.6-98.2,11,2.4,22.1-1.5,32.6-2.3l.2,19c-6.6.9-13.2,1.9-19.7,3.1-.3,0-.6,0-.8.1-4,.7-7.9,1.5-11.8,2.4-1.6.3-3.1.7-4.7,1.1-2,.4-3.9.9-5.9,1.4-2.3.6-4.6,1.2-6.9,1.8-.7.2-1.4.4-2.1.6-2.5.7-5,1.3-7.5,2.1-.2,0-.3.2-.5.2-128.9,38-230,140.9-265.7,270.4,0,.2-.2.3-.2.5-.7,2.7-1.4,5.3-2,8-.1.5-.2,1-.4,1.4-.6,2.5-1.2,5.1-1.8,7.6-.3,1.3-.6,2.6-.9,3.9-.5,2.3-1,4.6-1.4,6.9-.7,3.3-1.3,6.7-1.8,10-.3,1.7-.5,3.3-.8,5-.4,2.4-.7,4.8-1.1,7.2-.2,1.5-.4,3.1-.6,4.6-.2,1.7-.4,3.3-.6,5l-19,.2c.6-10.6-.8-21.7,1.7-32.7,13.6-60.3,3.3-173.5,58.1-229.3ZM89.1,543c0-10.4,8.3-18.9,18.6-19h6.6c0,0,0,0,0,0s0,0,0,0l31.1-.3.3,37.6-37.8.3c-10.4,0-18.9-8.3-19-18.6ZM236.4,864.7c-31.6-31-48.2-92.3-63.6-134-11.8-32-37.9-67.6-40.6-108.7-.8-11.3-1.5-22.1-2.3-32.6l19-.2c.2,1.7.4,3.4.7,5,.2,1.5.4,3,.7,4.6.4,2.4.8,4.8,1.2,7.2.3,1.6.6,3.3.9,4.9.6,3.4,1.3,6.7,2,10,.5,2.3,1,4.5,1.5,6.8.3,1.3.6,2.7.9,4,.6,2.5,1.3,5.1,1.9,7.6.1.5.3,1,.4,1.5.7,2.6,1.4,5.3,2.2,7.9,0,.2.2.4.2.6,38,128.8,140.9,229.9,270.4,265.6.2,0,.3.2.5.2,2.6.7,5.3,1.4,7.9,2,.5.1,1,.3,1.6.4,2.5.6,5,1.2,7.5,1.8,1.4.3,2.8.6,4.1.9,2.2.5,4.4,1,6.7,1.4,3.4.7,6.7,1.3,10.1,1.8,1.6.3,3.2.5,4.8.8,2.5.4,4.9.7,7.4,1.1,1.5.2,3,.4,4.5.6,1.7.2,3.4.4,5.1.6l.2,18.9c-10.6-.6-21.4-1.2-32.7-1.7-94.8-4.7-167.4-24.2-223.1-79ZM558,966.5c0,10.4-8.3,18.9-18.6,19-10.4,0-18.9-8.3-19-18.6l-.3-37.8,37.6-.3.3,37.8ZM774.9,933c-40.3,25.8-84.9-5.5-156.5,9.3-11,2.3-22.1,1.5-32.6,2.3l-.2-18.9c1.7-.2,3.4-.4,5.1-.7,1.5-.2,3-.4,4.5-.7,2.5-.4,4.9-.8,7.4-1.2,1.6-.3,3.2-.5,4.8-.8,3.4-.6,6.7-1.3,10.1-2,2.2-.5,4.4-1,6.6-1.5,1.4-.3,2.8-.6,4.1-1,2.5-.6,5-1.2,7.5-1.9.5-.1,1.1-.3,1.6-.4,2.6-.7,5.2-1.4,7.8-2.1.2,0,.3-.1.5-.2,128.8-38,229.9-140.8,265.7-270.3,0-.2.2-.4.3-.7.8-2.8,1.5-5.7,2.2-8.5,0-.3.1-.5.2-.8.7-2.7,1.3-5.3,1.9-8,.3-1.2.5-2.3.8-3.5.6-2.6,1.1-5.1,1.6-7.7.6-3.1,1.2-6.2,1.7-9.4.3-1.7.5-3.5.8-5.2.4-2.3.7-4.6,1-6.9.2-1.6.4-3.2.6-4.8.2-1.7.4-3.3.6-5l18.9-.2c-.6,10.5.5,21.6-1.7,32.6-19,95.2-99.4,276-165.3,318.2ZM963.3,554.1l-37.8.3-.3-37.6,31.1-.3s0,0,0,0c0,0,0,0,0,0h6.6c10.4-.1,18.9,8.2,19,18.6,0,10.4-8.3,18.9-18.6,19Z" fill="#fff" stroke="#fff" stroke-miterlimit="10" stroke-width="10"/>
  <path d="M1877.9,40.2" fill="#fff" stroke="#fff" stroke-miterlimit="10" stroke-width="6"/>
  <path d="M1845,36.1" fill="#fff" stroke="#fff" stroke-miterlimit="10" stroke-width="6"/>
</svg>