<?xml version="1.0" encoding="UTF-8"?>
<svg id="Ebene_1" xmlns="http://www.w3.org/2000/svg" version="1.1" viewBox="0 0 425.2 425.2">
  <!-- Generator: Adobe Illustrator 30.2.0, SVG Export Plug-In . SVG Version: 2.1.1 Build 105)  -->
  <path d="M206.9,284.2L360.4,60c-18.4-17.8-39.9-32.3-63.7-42.6l-163,238.1c18.8,17.5,44.1,27.6,73.1,28.7Z" fill="#fff"/>
  <path d="M311,229.9c1.8-3.2,5.1-5.2,8.7-5.2s7,2,8.7,5.2c4.7,8.5,10.4,16.1,17,22.8l70.3-102.7c-8.6-27.9-22.9-53.4-41.4-75.1l-142.5,208c34.7-5.1,63-23.7,79-53Z" fill="#fff"/>
  <path d="M96.3,229.9c1.8-3.2,5.1-5.2,8.7-5.2s7,2,8.7,5.2c1.9,3.5,4.1,6.8,6.3,10L277.5,10.1C257,3.6,235.2,0,212.6,0s-14.6.4-21.7,1.1L7.6,268.8c1.4,5,2.9,9.9,4.6,14.7,37.1-3.9,67.3-23,84.1-53.7Z" fill="#fff"/>
  <path d="M422.1,176.1l-61.1,89.3c14.8,9.9,32.5,16.2,52.1,18.2,7.9-22.2,12.2-46.1,12.2-71s-1.1-24.6-3.1-36.5Z" fill="#fff"/>
  <path d="M319.7,253.3c-23.9,32.6-62.2,51.1-107.3,51.1s-83.4-18.4-107.3-51.1c-19.9,27.1-49.6,44.4-85,49.4,34,72.3,107.5,122.5,192.5,122.5s158.5-50.2,192.5-122.5c-35.5-5-65.5-22.3-85.4-49.5Z" fill="#fff"/>
  <path d="M0,212.6c0,9.8.7,19.5,2,29L163.5,5.7C69.9,27.9,0,112.2,0,212.6Z" fill="#fff"/>
</svg>